<?xml version="1.0" encoding="UTF-8"?>
<svg width="400" height="250" viewBox="0 0 400 250" fill="none" xmlns="http://www.w3.org/2000/svg">
  <!-- Background Elements -->
  <path d="M0 0h400v250h-400z" fill="#1a2a6c" opacity="0.05"/>
  <path d="M20,20 Q200,0 380,20 T380,230 Q200,250 20,230 T20,20" 
        fill="#1a2a6c" opacity="0.1" />
  
  <!-- Abstract Data Visualization -->
  <path d="M50,180 L100,120 L150,160 L200,80 L250,140 L300,60 L350,100" 
        stroke="#1a2a6c" stroke-width="3" fill="none" opacity="0.6"/>
  <circle cx="100" cy="120" r="4" fill="#1a2a6c"/>
  <circle cx="150" cy="160" r="4" fill="#1a2a6c"/>
  <circle cx="200" cy="80" r="4" fill="#1a2a6c"/>
  <circle cx="250" cy="140" r="4" fill="#1a2a6c"/>
  <circle cx="300" cy="60" r="4" fill="#1a2a6c"/>
  
  <!-- Buildings Silhouette -->
  <path d="M80,150 h40 v-60 h20 v60 h30 v-80 h25 v80 h30 v-100 h30 v100 h40" 
        stroke="#1a2a6c" stroke-width="2" fill="none"/>
  
  <!-- Decorative Circles -->
  <circle cx="50" cy="50" r="30" fill="#4CAF50" opacity="0.1"/>
  <circle cx="350" cy="200" r="40" fill="#1a2a6c" opacity="0.1"/>
  
  <!-- Grid Pattern -->
  <path d="M0,50 h400 M0,100 h400 M0,150 h400 M0,200 h400" 
        stroke="#1a2a6c" stroke-width="0.5" stroke-dasharray="5,5" opacity="0.1"/>
  <path d="M50,0 v250 M100,0 v250 M150,0 v250 M200,0 v250 M250,0 v250 M300,0 v250 M350,0 v250" 
        stroke="#1a2a6c" stroke-width="0.5" stroke-dasharray="5,5" opacity="0.1"/>
</svg> 