<?xml version="1.0" encoding="UTF-8"?>
<svg width="300" height="200" viewBox="0 0 300 200" fill="none" xmlns="http://www.w3.org/2000/svg">
  <!-- Modern Building -->
  <rect x="50" y="20" width="200" height="160" rx="5" fill="#1a2a6c" opacity="0.1"/>
  
  <!-- Windows -->
  <rect x="70" y="40" width="30" height="30" rx="2" fill="#1a2a6c" opacity="0.2"/>
  <rect x="110" y="40" width="30" height="30" rx="2" fill="#1a2a6c" opacity="0.2"/>
  <rect x="150" y="40" width="30" height="30" rx="2" fill="#1a2a6c" opacity="0.2"/>
  <rect x="190" y="40" width="30" height="30" rx="2" fill="#1a2a6c" opacity="0.2"/>
  
  <rect x="70" y="80" width="30" height="30" rx="2" fill="#1a2a6c" opacity="0.2"/>
  <rect x="110" y="80" width="30" height="30" rx="2" fill="#1a2a6c" opacity="0.2"/>
  <rect x="150" y="80" width="30" height="30" rx="2" fill="#1a2a6c" opacity="0.2"/>
  <rect x="190" y="80" width="30" height="30" rx="2" fill="#1a2a6c" opacity="0.2"/>
  
  <!-- Solar Panels -->
  <rect x="70" y="30" width="40" height="10" fill="#4CAF50" opacity="0.3"/>
  <rect x="120" y="30" width="40" height="10" fill="#4CAF50" opacity="0.3"/>
  <rect x="170" y="30" width="40" height="10" fill="#4CAF50" opacity="0.3"/>
  
  <!-- Green Space -->
  <circle cx="150" cy="170" r="15" fill="#4CAF50" opacity="0.3"/>
  <circle cx="180" cy="170" r="10" fill="#4CAF50" opacity="0.2"/>
  <circle cx="120" cy="170" r="10" fill="#4CAF50" opacity="0.2"/>
  
  <!-- Sustainability Icons -->
  <circle cx="40" cy="40" r="10" fill="#4CAF50" opacity="0.2"/>
  <path d="M35 40l5-5 5 5" stroke="#4CAF50" stroke-width="2"/>
  
  <circle cx="260" cy="40" r="10" fill="#1a2a6c" opacity="0.2"/>
  <path d="M255 40h10 M260 35v10" stroke="#1a2a6c" stroke-width="2"/>
</svg> 