<?xml version="1.0" encoding="UTF-8"?>
<svg width="400" height="200" viewBox="0 0 400 200" fill="none" xmlns="http://www.w3.org/2000/svg">
  <!-- Background -->
  <rect width="400" height="200" fill="#1a2a6c" opacity="0.1"/>
  
  <!-- Blueprint Grid -->
  <path d="M0 20h400 M0 40h400 M0 60h400 M0 80h400 M0 100h400 M0 120h400 M0 140h400 M0 160h400 M0 180h400" 
        stroke="#1a2a6c" stroke-width="0.5" opacity="0.1"/>
  <path d="M20 0v200 M40 0v200 M60 0v200 M80 0v200 M100 0v200 M120 0v200 M140 0v200 M160 0v200 M180 0v200" 
        stroke="#1a2a6c" stroke-width="0.5" opacity="0.1"/>
  
  <!-- Buildings -->
  <rect x="50" y="40" width="100" height="140" fill="#1a2a6c" opacity="0.2"/>
  <rect x="60" y="60" width="20" height="20" fill="#1a2a6c" opacity="0.3"/>
  <rect x="90" y="60" width="20" height="20" fill="#1a2a6c" opacity="0.3"/>
  <rect x="120" y="60" width="20" height="20" fill="#1a2a6c" opacity="0.3"/>
  
  <rect x="200" y="80" width="80" height="100" fill="#1a2a6c" opacity="0.2"/>
  <rect x="210" y="100" width="15" height="15" fill="#1a2a6c" opacity="0.3"/>
  <rect x="235" y="100" width="15" height="15" fill="#1a2a6c" opacity="0.3"/>
  <rect x="260" y="100" width="15" height="15" fill="#1a2a6c" opacity="0.3"/>
  
  <!-- Compass -->
  <circle cx="350" cy="50" r="20" fill="#1a2a6c" opacity="0.1"/>
  <path d="M350 30l5 15h-10z" fill="#1a2a6c"/>
  <text x="350" y="45" text-anchor="middle" fill="#1a2a6c" font-size="8">N</text>
  
  <!-- Ruler -->
  <rect x="30" y="180" width="100" height="10" fill="#1a2a6c" opacity="0.2"/>
  <path d="M30 180v5 M40 180v7 M50 180v5 M60 180v7 M70 180v5 M80 180v7 M90 180v5 M100 180v7 M110 180v5 M120 180v7" 
        stroke="#1a2a6c" stroke-width="1"/>
</svg> 